<svg xmlns="http://www.w3.org/2000/svg">
  <symbol id="icon-chevron-up" viewBox="0 0 24 24">
    <path d="M6 15l6-6 6 6" fill="none" stroke="currentColor" stroke-width="2" stroke-linecap="round" stroke-linejoin="round"/>
  </symbol>
  <symbol id="icon-chevron-down" viewBox="0 0 24 24">
    <path d="M6 9l6 6 6-6" fill="none" stroke="currentColor" stroke-width="2" stroke-linecap="round" stroke-linejoin="round"/>
  </symbol>
  <symbol id="icon-mail" viewBox="0 0 24 24">
    <path d="M4 6h16v12H4z" fill="none" stroke="currentColor" stroke-width="2" stroke-linejoin="round"/>
    <path d="M4 7l8 6 8-6" fill="none" stroke="currentColor" stroke-width="2" stroke-linecap="round" stroke-linejoin="round"/>
  </symbol>
  <symbol id="icon-location" viewBox="0 0 24 24">
    <path d="M12 21s7-6 7-12a7 7 0 0 0-14 0c0 6 7 12 7 12z" fill="none" stroke="currentColor" stroke-width="2" stroke-linejoin="round"/>
    <circle cx="12" cy="9" r="2.5" fill="none" stroke="currentColor" stroke-width="2"/>
  </symbol>
  <symbol id="icon-document" viewBox="0 0 24 24">
    <path d="M6 3h8l4 4v14H6z" fill="none" stroke="currentColor" stroke-width="2" stroke-linejoin="round"/>
    <path d="M14 3v5h5M9 13h6M9 17h6" fill="none" stroke="currentColor" stroke-width="2" stroke-linecap="round"/>
  </symbol>
  <symbol id="icon-download" viewBox="0 0 24 24">
    <path d="M12 4v11M7 10l5 5 5-5M5 20h14" fill="none" stroke="currentColor" stroke-width="2" stroke-linecap="round" stroke-linejoin="round"/>
  </symbol>
  <symbol id="icon-school" viewBox="0 0 24 24">
    <path d="M3 8l9-4 9 4-9 4zM7 11v5c3 2 7 2 10 0v-5" fill="none" stroke="currentColor" stroke-width="2" stroke-linejoin="round"/>
  </symbol>
  <symbol id="icon-github" viewBox="0 0 24 24">
    <path d="M12 2a10 10 0 0 0-3 19v-4c-2 .5-3-1-3-1-.5-1-1-1.5-1-1.5-1-.7 0-.7 0-.7 1 0 1.5 1 1.5 1 1 1.5 2.5 1 2.5.8.1-.7.4-1.1.7-1.3-2.2-.3-4.5-1.1-4.5-5A4 4 0 0 1 6.3 6c-.1-.3-.5-1.5.1-3 0 0 1-.3 3 1.1A10 10 0 0 1 12 3.8c.9 0 1.8.1 2.6.3C16.6 2.7 17.6 3 17.6 3c.6 1.5.2 2.7.1 3A4 4 0 0 1 19 9.8c0 3.9-2.3 4.7-4.5 5 .5.4.8 1.1.8 2.2v4A10 10 0 0 0 12 2z" fill="currentColor"/>
  </symbol>
  <symbol id="icon-sparkles" viewBox="0 0 24 24">
    <path d="M12 3l1.8 5.2L19 10l-5.2 1.8L12 17l-1.8-5.2L5 10l5.2-1.8zM5 15l.8 2.2L8 18l-2.2.8L5 21l-.8-2.2L2 18l2.2-.8zM19 3l.8 2.2L22 6l-2.2.8L19 9l-.8-2.2L16 6l2.2-.8z" fill="currentColor"/>
  </symbol>
  <symbol id="icon-planet" viewBox="0 0 24 24">
    <circle cx="12" cy="12" r="5" fill="none" stroke="currentColor" stroke-width="2"/>
    <path d="M3 14c3 2 15-4 18-2M5 17c4 1 13-3 16-6" fill="none" stroke="currentColor" stroke-width="2" stroke-linecap="round"/>
  </symbol>
  <symbol id="icon-terminal" viewBox="0 0 24 24">
    <path d="M4 5h16v14H4zM7 9l3 3-3 3M12 15h5" fill="none" stroke="currentColor" stroke-width="2" stroke-linecap="round" stroke-linejoin="round"/>
  </symbol>
  <symbol id="icon-branch" viewBox="0 0 24 24">
    <circle cx="6" cy="5" r="2" fill="none" stroke="currentColor" stroke-width="2"/>
    <circle cx="18" cy="7" r="2" fill="none" stroke="currentColor" stroke-width="2"/>
    <circle cx="6" cy="19" r="2" fill="none" stroke="currentColor" stroke-width="2"/>
    <path d="M6 7v10M8 6h4c3 0 4 1 4 3v6" fill="none" stroke="currentColor" stroke-width="2" stroke-linecap="round"/>
  </symbol>
  <symbol id="icon-briefcase" viewBox="0 0 24 24">
    <path d="M4 7h16v12H4zM9 7V5h6v2M4 12h16" fill="none" stroke="currentColor" stroke-width="2" stroke-linejoin="round"/>
  </symbol>
  <symbol id="icon-code" viewBox="0 0 24 24">
    <path d="M8 8l-4 4 4 4M16 8l4 4-4 4M14 5l-4 14" fill="none" stroke="currentColor" stroke-width="2" stroke-linecap="round" stroke-linejoin="round"/>
  </symbol>
  <symbol id="icon-people" viewBox="0 0 24 24">
    <circle cx="9" cy="8" r="3" fill="none" stroke="currentColor" stroke-width="2"/>
    <circle cx="17" cy="9" r="2.5" fill="none" stroke="currentColor" stroke-width="2"/>
    <path d="M3 20c1-4 11-4 12 0M14 17c3-.8 6 .2 7 3" fill="none" stroke="currentColor" stroke-width="2" stroke-linecap="round"/>
  </symbol>
  <symbol id="icon-mic" viewBox="0 0 24 24">
    <rect x="9" y="3" width="6" height="11" rx="3" fill="none" stroke="currentColor" stroke-width="2"/>
    <path d="M5 11a7 7 0 0 0 14 0M12 18v3M9 21h6" fill="none" stroke="currentColor" stroke-width="2" stroke-linecap="round"/>
  </symbol>
  <symbol id="icon-globe" viewBox="0 0 24 24">
    <circle cx="12" cy="12" r="9" fill="none" stroke="currentColor" stroke-width="2"/>
    <path d="M3 12h18M12 3c3 3 3 15 0 18M12 3c-3 3-3 15 0 18" fill="none" stroke="currentColor" stroke-width="2" stroke-linecap="round"/>
  </symbol>
  <symbol id="icon-star" viewBox="0 0 24 24">
    <path d="M12 3l2.7 5.5 6 .9-4.3 4.2 1 6-5.4-2.8-5.4 2.8 1-6-4.3-4.2 6-.9z" fill="none" stroke="currentColor" stroke-width="2" stroke-linejoin="round"/>
  </symbol>
</svg>
